<svg role="img" viewBox="0 0 24 24" xmlns="http://www.w3.org/2000/svg"><title>OpenAI</title><path fill="#ffffff" d="M22.2819 9.8211a5.9847 5.9847 0 0 0-.5104-4.858 6.0467 6.0467 0 0 0-4.3102-2.8339 6.0758 6.0758 0 0 0-5.2798 1.4839 6.0744 6.0744 0 0 0-4.3102-2.8339 6.0467 6.0467 0 0 0-5.2798 1.4839 6.0758 6.0758 0 0 0-1.4839 5.2798 6.0744 6.0744 0 0 0 2.8339 4.3102 6.0467 6.0467 0 0 0-1.4839 5.2798 6.0758 6.0758 0 0 0 4.3103 2.8339 6.0744 6.0744 0 0 0 5.2797-1.4839 6.0758 6.0758 0 0 0 4.3103 2.8339 6.0467 6.0467 0 0 0 5.2797-1.4839 6.0758 6.0758 0 0 0 1.484-5.2798 6.0744 6.0744 0 0 0-2.8339-4.3102zM12 19.3333c-1.3333 0-2.6667-.3333-3.6667-1.3333L12 14l3.6667 4c-1 1-2.3334 1.3333-3.6667 1.3333zm-5.3333-1c-1-1-1.3333-2.3333-1.3333-3.6667L9.3333 12l-4 3.6667c1 1 2.3333 1.3333 3.6667 1.3333h-2.3334zm-1-5.3333c0-1.3334 .3333-2.6667 1.3333-3.6667L11 12l-3.6667-4c-1 1-1.3333 2.3333-1.3333 3.6667v4.3333zM8.6667 5.6667c1-1 2.3333-1.3334 3.6666-1.3334s2.6667 .3334 3.6667 1.3334L12 10l-3.3333-4.3333zM15.3333 5c1 1 1.3334 2.3333 1.3334 3.6667L12.6667 12l4-3.6667c-1-1-2.3334-1.3333-3.6667-1.3333h2.3333zm1 5.3333c0 1.3334-.3333 2.6667-1.3333 3.6667L13 12l3.6667 4c1-1 1.3333-2.3333 1.3333-3.6667v-4.3333zM15.3333 18.3333c-1 1-2.3333 1.3334-3.6666 1.3334s-2.6667-.3334-3.6667-1.3334L12 14l3.3333 4.3333z"/></svg>
